# xmcd
#
# Track frame offsets:
# 150
# 14386
# 29212
# 40051
# 54519
# 65757
# 76775
# 91485
# 104316
# 116880
# 127410
# 143903
# 158008
# 172188
# 194322
# 208062
# 222335
# 234504
#
# Disc length: 3285 seconds
#
#
# Revision: 0
# Processed by: cddbd v1.5.2PL0 Copyright (c) Steve Scherf et al.
# Submitted via: FreeRIP 2.944 
#
DISCID=100cd312
DTITLE=Ray Charles - The Definitive Anthology - CD 3
DYEAR=2007
DGENRE=R&B
TTITLE0=Hide Nor Hair
TTITLE1=Smack Dab In The Middle
TTITLE2=Sentimental Blues
TTITLE3=Feel So Bad
TTITLE4=She's On The Ball
TTITLE5=I Chose To Sing The Blues
TTITLE6=Hard Hearted Hanna
TTITLE7=Baby, Won't You Please Come Home
TTITLE8=Them That Got
TTITLE9=Hey Now
TTITLE10=Look What They've Done To My Song, Ma
TTITLE11=One Mint Julep
TTITLE12=Blues In My Middle Name
TTITLE13=If It Wasn't For The Bad Luck
TTITLE14=My Baby Don't Dig Me
TTITLE15=No One
TTITLE16=No One
TTITLE17=Honey Honey
EXTD=
EXTT0=
EXTT1=
EXTT2=
EXTT3=
EXTT4=
EXTT5=
EXTT6=
EXTT7=
EXTT8=
EXTT9=
EXTT10=
EXTT11=
EXTT12=
EXTT13=
EXTT14=
EXTT15=
EXTT16=
EXTT17=
PLAYORDER=
